<svg width="37" height="43" viewBox="0 0 37 43" fill="none" xmlns="http://www.w3.org/2000/svg">
<path d="M0.651855 22.2751V25.7181C0.65212 26.1744 0.833525 26.612 1.15622 26.9347C1.47891 27.2574 1.9165 27.4388 2.37286 27.4391H26.4729C26.9292 27.4388 27.3668 27.2574 27.6895 26.9347C28.0122 26.612 28.1936 26.1744 28.1939 25.7181V22.2751C28.1925 20.9059 27.648 19.5932 26.6799 18.625C25.7117 17.6569 24.399 17.1124 23.0299 17.1111H20.4519V12.8111C20.4516 12.3547 20.2702 11.9171 19.9475 11.5944C19.6248 11.2717 19.1872 11.0903 18.7309 11.0901H16.1439V5.92206C16.1444 5.46578 16.3259 5.02835 16.6485 4.70571C16.9711 4.38307 17.4086 4.20159 17.8649 4.20106H31.6359C32.0921 4.20159 32.5296 4.38307 32.8522 4.70571C33.1748 5.02835 33.3563 5.46578 33.3569 5.92206V40.3491C33.3569 40.8056 33.5382 41.2435 33.8611 41.5663C34.1839 41.8892 34.6218 42.0706 35.0784 42.0706C35.5349 42.0706 35.9728 41.8892 36.2956 41.5663C36.6185 41.2435 36.7999 40.8056 36.7999 40.3491V5.92206C36.7985 4.55289 36.254 3.24017 35.2859 2.27202C34.3177 1.30387 33.005 0.75938 31.6359 0.758057L17.8649 0.758057C16.4957 0.75938 15.183 1.30387 14.2148 2.27202C13.2467 3.24017 12.7022 4.55289 12.7009 5.92206V11.0861H10.1189C9.6625 11.0863 9.22491 11.2677 8.90222 11.5904C8.57952 11.9131 8.39812 12.3507 8.39786 12.8071V17.1071H5.81586C4.44599 17.1084 3.13267 17.6534 2.16441 18.6224C1.19614 19.5914 0.65212 20.9052 0.651855 22.2751ZM11.8409 14.5291H17.0049V17.1111H11.8409V14.5291ZM4.09486 22.2751C4.09644 21.8195 4.2784 21.3831 4.60092 21.0613C4.92344 20.7395 5.36027 20.5586 5.81586 20.5581H23.0289C23.4848 20.5581 23.9221 20.7388 24.2451 21.0606C24.568 21.3824 24.7503 21.8191 24.7519 22.2751V23.9961H4.09486V22.2751Z" fill="#222222"/>
<path d="M14.4219 36.906C13.9656 36.9063 13.528 37.0877 13.2053 37.4104C12.8826 37.7331 12.7012 38.1707 12.7009 38.627V40.348C12.7009 40.8046 12.8823 41.2424 13.2051 41.5653C13.528 41.8881 13.9659 42.0695 14.4224 42.0695C14.879 42.0695 15.3169 41.8881 15.6397 41.5653C15.9626 41.2424 16.1439 40.8046 16.1439 40.348V38.627C16.1437 38.1705 15.9621 37.7327 15.6392 37.41C15.3163 37.0873 14.8785 36.906 14.4219 36.906Z" fill="#222222"/>
<path d="M16.1439 30.8812C16.1439 30.4246 15.9626 29.9867 15.6397 29.6639C15.3169 29.341 14.879 29.1597 14.4224 29.1597C13.9659 29.1597 13.528 29.341 13.2051 29.6639C12.8823 29.9867 12.7009 30.4246 12.7009 30.8812V32.6021C12.7009 33.0587 12.8823 33.4966 13.2051 33.8194C13.528 34.1423 13.9659 34.3237 14.4224 34.3237C14.879 34.3237 15.3169 34.1423 15.6397 33.8194C15.9626 33.4966 16.1439 33.0587 16.1439 32.6021V30.8812Z" fill="#222222"/>
<path d="M4.09497 32.6021V40.3481C4.09497 40.8047 4.27634 41.2426 4.59919 41.5654C4.92203 41.8882 5.3599 42.0696 5.81647 42.0696C6.27304 42.0696 6.71091 41.8882 7.03376 41.5654C7.3566 41.2426 7.53797 40.8047 7.53797 40.3481V32.6021C7.53797 32.1455 7.3566 31.7077 7.03376 31.3848C6.71091 31.062 6.27304 30.8806 5.81647 30.8806C5.3599 30.8806 4.92203 31.062 4.59919 31.3848C4.27634 31.7077 4.09497 32.1455 4.09497 32.6021Z" fill="#222222"/>
<path d="M21.3079 30.8812V40.3481C21.3079 40.8047 21.4892 41.2426 21.8121 41.5654C22.1349 41.8883 22.5728 42.0696 23.0294 42.0696C23.4859 42.0696 23.9238 41.8883 24.2466 41.5654C24.5695 41.2426 24.7509 40.8047 24.7509 40.3481V30.8812C24.7509 30.4246 24.5695 29.9867 24.2466 29.6639C23.9238 29.341 23.4859 29.1597 23.0294 29.1597C22.5728 29.1597 22.1349 29.341 21.8121 29.6639C21.4892 29.9867 21.3079 30.4246 21.3079 30.8812Z" fill="#222222"/>
</svg>
