<svg width="57" height="33" viewBox="0 0 57 33" fill="none" xmlns="http://www.w3.org/2000/svg">
<path d="M41.6571 6.89713H19.1981C18.6057 5.90382 17.7651 5.08164 16.759 4.51132C15.7528 3.94101 14.6157 3.64216 13.4591 3.64412C11.7169 3.62839 10.0397 4.30467 8.79567 5.52449C7.55166 6.74431 6.84258 8.40795 6.8241 10.1501C6.82194 11.2962 7.13316 12.4211 7.7241 13.4031H3.3961V0.391113H0.0791016V32.9191H3.3961V23.1611H53.3791V32.9191H56.6961V13.4021H49.7851C49.38 11.551 48.3518 9.8951 46.8724 8.71109C45.393 7.52708 43.552 6.88675 41.6571 6.89713ZM41.6571 10.1501C42.9633 10.1394 44.2205 10.647 45.1532 11.5615C46.0859 12.476 46.6181 13.723 46.6331 15.0291V19.9081H20.0941V10.1501H41.6571ZM10.1421 10.1501C10.1572 9.28024 10.5134 8.45109 11.1339 7.84126C11.7544 7.23143 12.5896 6.88972 13.4596 6.88972C14.3296 6.88972 15.1648 7.23143 15.7853 7.84126C16.4058 8.45109 16.762 9.28024 16.7771 10.1501V13.4031H13.4591C12.5881 13.4109 11.7496 13.0726 11.1277 12.4628C10.5058 11.8529 10.1513 11.0211 10.1421 10.1501ZM3.3971 16.6561H16.7791V19.9091H3.3961L3.3971 16.6561ZM53.3791 19.9081H49.9511V16.6551H53.3791V19.9081Z" fill="#222222"/>
</svg>
