<svg width="362" height="53" viewBox="0 0 362 53" fill="none" xmlns="http://www.w3.org/2000/svg">
<path d="M207.68 14.768C208.155 14.768 208.579 14.688 208.952 14.528C209.325 14.368 209.64 14.144 209.896 13.856C210.157 13.568 210.355 13.224 210.488 12.824C210.627 12.424 210.696 11.984 210.696 11.504V4.536H212.24V11.504C212.24 12.1653 212.133 12.7787 211.92 13.344C211.712 13.9093 211.411 14.4 211.016 14.816C210.627 15.2267 210.149 15.5493 209.584 15.784C209.019 16.0187 208.384 16.136 207.68 16.136C206.976 16.136 206.341 16.0187 205.776 15.784C205.211 15.5493 204.731 15.2267 204.336 14.816C203.941 14.4 203.637 13.9093 203.424 13.344C203.216 12.7787 203.112 12.1653 203.112 11.504V4.536H204.656V11.496C204.656 11.976 204.723 12.416 204.856 12.816C204.995 13.216 205.192 13.56 205.448 13.848C205.709 14.136 206.027 14.3627 206.4 14.528C206.779 14.688 207.205 14.768 207.68 14.768ZM214.368 16V7.896H215.216C215.418 7.896 215.546 7.99467 215.6 8.192L215.704 9.024C216.002 8.656 216.336 8.35467 216.704 8.12C217.077 7.88533 217.509 7.768 218 7.768C218.549 7.768 218.992 7.92 219.328 8.224C219.669 8.528 219.914 8.93867 220.064 9.456C220.176 9.16267 220.322 8.90933 220.504 8.696C220.69 8.48267 220.898 8.30667 221.128 8.168C221.357 8.02933 221.6 7.928 221.856 7.864C222.117 7.8 222.381 7.768 222.648 7.768C223.074 7.768 223.453 7.83733 223.784 7.976C224.12 8.10933 224.402 8.30667 224.632 8.568C224.866 8.82933 225.045 9.152 225.168 9.536C225.29 9.91467 225.352 10.3493 225.352 10.84V16H223.928V10.84C223.928 10.2053 223.789 9.72533 223.512 9.4C223.234 9.06933 222.832 8.904 222.304 8.904C222.069 8.904 221.845 8.94667 221.632 9.032C221.424 9.112 221.24 9.232 221.08 9.392C220.92 9.552 220.792 9.75467 220.696 10C220.605 10.24 220.56 10.52 220.56 10.84V16H219.136V10.84C219.136 10.1893 219.005 9.704 218.744 9.384C218.482 9.064 218.101 8.904 217.6 8.904C217.248 8.904 216.92 9 216.616 9.192C216.317 9.37867 216.042 9.63467 215.792 9.96V16H214.368ZM233.14 16H232.508C232.369 16 232.257 15.9787 232.172 15.936C232.087 15.8933 232.031 15.8027 232.004 15.664L231.844 14.912C231.631 15.104 231.423 15.2773 231.22 15.432C231.017 15.5813 230.804 15.7093 230.58 15.816C230.356 15.9173 230.116 15.9947 229.86 16.048C229.609 16.1013 229.329 16.128 229.02 16.128C228.705 16.128 228.409 16.0853 228.132 16C227.86 15.9093 227.623 15.776 227.42 15.6C227.217 15.424 227.055 15.2027 226.932 14.936C226.815 14.664 226.756 14.344 226.756 13.976C226.756 13.656 226.844 13.3493 227.02 13.056C227.196 12.7573 227.479 12.4933 227.868 12.264C228.263 12.0347 228.777 11.848 229.412 11.704C230.047 11.5547 230.823 11.4693 231.74 11.448V10.816C231.74 10.1867 231.604 9.712 231.332 9.392C231.065 9.06667 230.668 8.904 230.14 8.904C229.793 8.904 229.5 8.94933 229.26 9.04C229.025 9.12533 228.82 9.224 228.644 9.336C228.473 9.44267 228.324 9.54133 228.196 9.632C228.073 9.71733 227.951 9.76 227.828 9.76C227.732 9.76 227.647 9.736 227.572 9.688C227.503 9.63467 227.447 9.57067 227.404 9.496L227.148 9.04C227.596 8.608 228.079 8.28533 228.596 8.072C229.113 7.85867 229.687 7.752 230.316 7.752C230.769 7.752 231.172 7.82667 231.524 7.976C231.876 8.12533 232.172 8.33333 232.412 8.6C232.652 8.86667 232.833 9.18933 232.956 9.568C233.079 9.94667 233.14 10.3627 233.14 10.816V16ZM229.444 15.128C229.695 15.128 229.924 15.104 230.132 15.056C230.34 15.0027 230.535 14.9307 230.716 14.84C230.903 14.744 231.079 14.6293 231.244 14.496C231.415 14.3627 231.58 14.2107 231.74 14.04V12.352C231.084 12.3733 230.527 12.4267 230.068 12.512C229.609 12.592 229.236 12.6987 228.948 12.832C228.66 12.9653 228.449 13.1227 228.316 13.304C228.188 13.4853 228.124 13.688 228.124 13.912C228.124 14.1253 228.159 14.3093 228.228 14.464C228.297 14.6187 228.391 14.7467 228.508 14.848C228.625 14.944 228.764 15.016 228.924 15.064C229.084 15.1067 229.257 15.128 229.444 15.128ZM240.959 7.768C241.445 7.768 241.893 7.85067 242.303 8.016C242.714 8.176 243.069 8.41067 243.367 8.72C243.666 9.024 243.898 9.40267 244.063 9.856C244.234 10.304 244.319 10.816 244.319 11.392C244.319 11.616 244.295 11.7653 244.247 11.84C244.199 11.9147 244.109 11.952 243.975 11.952H238.583C238.594 12.464 238.663 12.9093 238.791 13.288C238.919 13.6667 239.095 13.984 239.319 14.24C239.543 14.4907 239.81 14.68 240.119 14.808C240.429 14.9307 240.775 14.992 241.159 14.992C241.517 14.992 241.823 14.952 242.079 14.872C242.341 14.7867 242.565 14.696 242.751 14.6C242.938 14.504 243.093 14.416 243.215 14.336C243.343 14.2507 243.453 14.208 243.543 14.208C243.661 14.208 243.751 14.2533 243.815 14.344L244.215 14.864C244.039 15.0773 243.829 15.264 243.583 15.424C243.338 15.5787 243.074 15.7067 242.791 15.808C242.514 15.9093 242.226 15.984 241.927 16.032C241.629 16.0853 241.333 16.112 241.039 16.112C240.479 16.112 239.962 16.0187 239.487 15.832C239.018 15.64 238.61 15.3627 238.263 15C237.922 14.632 237.655 14.1787 237.463 13.64C237.271 13.1013 237.175 12.4827 237.175 11.784C237.175 11.2187 237.261 10.6907 237.431 10.2C237.607 9.70933 237.858 9.28533 238.183 8.928C238.509 8.56533 238.906 8.28267 239.375 8.08C239.845 7.872 240.373 7.768 240.959 7.768ZM240.991 8.816C240.303 8.816 239.762 9.016 239.367 9.416C238.973 9.81067 238.727 10.36 238.631 11.064H243.039C243.039 10.7333 242.994 10.432 242.903 10.16C242.813 9.88267 242.679 9.64533 242.503 9.448C242.327 9.24533 242.111 9.09067 241.855 8.984C241.605 8.872 241.317 8.816 240.991 8.816ZM245.822 16V7.896H246.67C246.873 7.896 247.001 7.99467 247.054 8.192L247.158 9.024C247.457 8.656 247.79 8.35467 248.158 8.12C248.531 7.88533 248.963 7.768 249.454 7.768C250.003 7.768 250.446 7.92 250.782 8.224C251.123 8.528 251.369 8.93867 251.518 9.456C251.63 9.16267 251.777 8.90933 251.958 8.696C252.145 8.48267 252.353 8.30667 252.582 8.168C252.811 8.02933 253.054 7.928 253.31 7.864C253.571 7.8 253.835 7.768 254.102 7.768C254.529 7.768 254.907 7.83733 255.238 7.976C255.574 8.10933 255.857 8.30667 256.086 8.568C256.321 8.82933 256.499 9.152 256.622 9.536C256.745 9.91467 256.806 10.3493 256.806 10.84V16H255.382V10.84C255.382 10.2053 255.243 9.72533 254.966 9.4C254.689 9.06933 254.286 8.904 253.758 8.904C253.523 8.904 253.299 8.94667 253.086 9.032C252.878 9.112 252.694 9.232 252.534 9.392C252.374 9.552 252.246 9.75467 252.15 10C252.059 10.24 252.014 10.52 252.014 10.84V16H250.59V10.84C250.59 10.1893 250.459 9.704 250.198 9.384C249.937 9.064 249.555 8.904 249.054 8.904C248.702 8.904 248.374 9 248.07 9.192C247.771 9.37867 247.497 9.63467 247.246 9.96V16H245.822ZM258.643 18.744V7.896H259.491C259.693 7.896 259.821 7.99467 259.875 8.192L259.995 9.152C260.341 8.73067 260.736 8.392 261.179 8.136C261.627 7.88 262.141 7.752 262.723 7.752C263.187 7.752 263.608 7.84267 263.987 8.024C264.365 8.2 264.688 8.464 264.955 8.816C265.221 9.16267 265.427 9.59467 265.571 10.112C265.715 10.6293 265.787 11.224 265.787 11.896C265.787 12.4933 265.707 13.0507 265.547 13.568C265.387 14.08 265.157 14.5253 264.859 14.904C264.56 15.2773 264.192 15.5733 263.755 15.792C263.323 16.0053 262.835 16.112 262.291 16.112C261.789 16.112 261.36 16.0293 261.003 15.864C260.651 15.6987 260.339 15.464 260.067 15.16V18.744H258.643ZM262.251 8.904C261.787 8.904 261.379 9.01067 261.027 9.224C260.68 9.43733 260.36 9.73867 260.067 10.128V14.048C260.328 14.4 260.613 14.648 260.923 14.792C261.237 14.936 261.587 15.008 261.971 15.008C262.723 15.008 263.301 14.7387 263.707 14.2C264.112 13.6613 264.315 12.8933 264.315 11.896C264.315 11.368 264.267 10.9147 264.171 10.536C264.08 10.1573 263.947 9.848 263.771 9.608C263.595 9.36267 263.379 9.184 263.123 9.072C262.867 8.96 262.576 8.904 262.251 8.904ZM267.151 16V7.896H267.967C268.121 7.896 268.228 7.92533 268.287 7.984C268.345 8.04267 268.385 8.144 268.407 8.288L268.503 9.552C268.78 8.98667 269.121 8.54667 269.527 8.232C269.937 7.912 270.417 7.752 270.967 7.752C271.191 7.752 271.393 7.77867 271.575 7.832C271.756 7.88 271.924 7.94933 272.079 8.04L271.895 9.104C271.857 9.23733 271.775 9.304 271.647 9.304C271.572 9.304 271.457 9.28 271.303 9.232C271.148 9.17867 270.932 9.152 270.655 9.152C270.159 9.152 269.743 9.296 269.407 9.584C269.076 9.872 268.799 10.2907 268.575 10.84V16H267.151ZM276.492 7.768C276.977 7.768 277.425 7.85067 277.836 8.016C278.246 8.176 278.601 8.41067 278.9 8.72C279.198 9.024 279.43 9.40267 279.596 9.856C279.766 10.304 279.852 10.816 279.852 11.392C279.852 11.616 279.828 11.7653 279.78 11.84C279.732 11.9147 279.641 11.952 279.508 11.952H274.116C274.126 12.464 274.196 12.9093 274.324 13.288C274.452 13.6667 274.628 13.984 274.852 14.24C275.076 14.4907 275.342 14.68 275.652 14.808C275.961 14.9307 276.308 14.992 276.692 14.992C277.049 14.992 277.356 14.952 277.612 14.872C277.873 14.7867 278.097 14.696 278.284 14.6C278.47 14.504 278.625 14.416 278.748 14.336C278.876 14.2507 278.985 14.208 279.076 14.208C279.193 14.208 279.284 14.2533 279.348 14.344L279.748 14.864C279.572 15.0773 279.361 15.264 279.116 15.424C278.87 15.5787 278.606 15.7067 278.324 15.808C278.046 15.9093 277.758 15.984 277.46 16.032C277.161 16.0853 276.865 16.112 276.572 16.112C276.012 16.112 275.494 16.0187 275.02 15.832C274.55 15.64 274.142 15.3627 273.796 15C273.454 14.632 273.188 14.1787 272.996 13.64C272.804 13.1013 272.708 12.4827 272.708 11.784C272.708 11.2187 272.793 10.6907 272.964 10.2C273.14 9.70933 273.39 9.28533 273.716 8.928C274.041 8.56533 274.438 8.28267 274.908 8.08C275.377 7.872 275.905 7.768 276.492 7.768ZM276.524 8.816C275.836 8.816 275.294 9.016 274.9 9.416C274.505 9.81067 274.26 10.36 274.164 11.064H278.572C278.572 10.7333 278.526 10.432 278.436 10.16C278.345 9.88267 278.212 9.64533 278.036 9.448C277.86 9.24533 277.644 9.09067 277.388 8.984C277.137 8.872 276.849 8.816 276.524 8.816ZM285.994 9.232C285.93 9.34933 285.832 9.408 285.698 9.408C285.618 9.408 285.528 9.37867 285.426 9.32C285.325 9.26133 285.2 9.19733 285.05 9.128C284.906 9.05333 284.733 8.98667 284.53 8.928C284.328 8.864 284.088 8.832 283.81 8.832C283.57 8.832 283.354 8.864 283.162 8.928C282.97 8.98667 282.805 9.06933 282.666 9.176C282.533 9.28267 282.429 9.408 282.354 9.552C282.285 9.69067 282.25 9.84267 282.25 10.008C282.25 10.216 282.309 10.3893 282.426 10.528C282.549 10.6667 282.709 10.7867 282.906 10.888C283.104 10.9893 283.328 11.08 283.578 11.16C283.829 11.2347 284.085 11.3173 284.346 11.408C284.613 11.4933 284.872 11.5893 285.122 11.696C285.373 11.8027 285.597 11.936 285.794 12.096C285.992 12.256 286.149 12.4533 286.266 12.688C286.389 12.9173 286.45 13.1947 286.45 13.52C286.45 13.8933 286.384 14.24 286.25 14.56C286.117 14.8747 285.92 15.1493 285.658 15.384C285.397 15.6133 285.077 15.7947 284.698 15.928C284.32 16.0613 283.882 16.128 283.386 16.128C282.821 16.128 282.309 16.0373 281.85 15.856C281.392 15.6693 281.002 15.432 280.682 15.144L281.018 14.6C281.061 14.5307 281.112 14.4773 281.17 14.44C281.229 14.4027 281.306 14.384 281.402 14.384C281.498 14.384 281.6 14.4213 281.706 14.496C281.813 14.5707 281.941 14.6533 282.09 14.744C282.245 14.8347 282.429 14.9173 282.642 14.992C282.861 15.0667 283.133 15.104 283.458 15.104C283.736 15.104 283.978 15.0693 284.186 15C284.394 14.9253 284.568 14.8267 284.706 14.704C284.845 14.5813 284.946 14.44 285.01 14.28C285.08 14.12 285.114 13.9493 285.114 13.768C285.114 13.544 285.053 13.36 284.93 13.216C284.813 13.0667 284.656 12.9413 284.458 12.84C284.261 12.7333 284.034 12.6427 283.778 12.568C283.528 12.488 283.269 12.4053 283.002 12.32C282.741 12.2347 282.482 12.1387 282.226 12.032C281.976 11.92 281.752 11.7813 281.554 11.616C281.357 11.4507 281.197 11.248 281.074 11.008C280.957 10.7627 280.898 10.4667 280.898 10.12C280.898 9.81067 280.962 9.51467 281.09 9.232C281.218 8.944 281.405 8.69333 281.65 8.48C281.896 8.26133 282.197 8.088 282.554 7.96C282.912 7.832 283.32 7.768 283.778 7.768C284.312 7.768 284.789 7.85333 285.21 8.024C285.637 8.18933 286.005 8.41867 286.314 8.712L285.994 9.232ZM293.924 16H293.292C293.153 16 293.041 15.9787 292.956 15.936C292.871 15.8933 292.815 15.8027 292.788 15.664L292.628 14.912C292.415 15.104 292.207 15.2773 292.004 15.432C291.801 15.5813 291.588 15.7093 291.364 15.816C291.14 15.9173 290.9 15.9947 290.644 16.048C290.393 16.1013 290.113 16.128 289.804 16.128C289.489 16.128 289.193 16.0853 288.916 16C288.644 15.9093 288.407 15.776 288.204 15.6C288.001 15.424 287.839 15.2027 287.716 14.936C287.599 14.664 287.54 14.344 287.54 13.976C287.54 13.656 287.628 13.3493 287.804 13.056C287.98 12.7573 288.263 12.4933 288.652 12.264C289.047 12.0347 289.561 11.848 290.196 11.704C290.831 11.5547 291.607 11.4693 292.524 11.448V10.816C292.524 10.1867 292.388 9.712 292.116 9.392C291.849 9.06667 291.452 8.904 290.924 8.904C290.577 8.904 290.284 8.94933 290.044 9.04C289.809 9.12533 289.604 9.224 289.428 9.336C289.257 9.44267 289.108 9.54133 288.98 9.632C288.857 9.71733 288.735 9.76 288.612 9.76C288.516 9.76 288.431 9.736 288.356 9.688C288.287 9.63467 288.231 9.57067 288.188 9.496L287.932 9.04C288.38 8.608 288.863 8.28533 289.38 8.072C289.897 7.85867 290.471 7.752 291.1 7.752C291.553 7.752 291.956 7.82667 292.308 7.976C292.66 8.12533 292.956 8.33333 293.196 8.6C293.436 8.86667 293.617 9.18933 293.74 9.568C293.863 9.94667 293.924 10.3627 293.924 10.816V16ZM290.228 15.128C290.479 15.128 290.708 15.104 290.916 15.056C291.124 15.0027 291.319 14.9307 291.5 14.84C291.687 14.744 291.863 14.6293 292.028 14.496C292.199 14.3627 292.364 14.2107 292.524 14.04V12.352C291.868 12.3733 291.311 12.4267 290.852 12.512C290.393 12.592 290.02 12.6987 289.732 12.832C289.444 12.9653 289.233 13.1227 289.1 13.304C288.972 13.4853 288.908 13.688 288.908 13.912C288.908 14.1253 288.943 14.3093 289.012 14.464C289.081 14.6187 289.175 14.7467 289.292 14.848C289.409 14.944 289.548 15.016 289.708 15.064C289.868 15.1067 290.041 15.128 290.228 15.128Z" fill="#EC0000"/>
<path d="M223.109 37.2498C223.064 36.224 222.773 35.224 222.26 34.3348L217.652 26.3538C217.305 25.7543 217.059 25.1025 216.923 24.4238L216.73 24.7578C216.169 25.7283 215.874 26.8292 215.874 27.9498C215.874 29.0705 216.169 30.1713 216.73 31.1418L220.416 37.5268C220.976 38.4975 221.271 39.5985 221.271 40.7193C221.271 41.8401 220.976 42.9412 220.416 43.9118L220.223 44.2458C220.086 43.5672 219.84 42.9153 219.494 42.3158L216.119 36.4708L213.964 32.7388C213.617 32.1393 213.371 31.4875 213.235 30.8088L213.042 31.1428C212.483 32.11 212.189 33.2066 212.187 34.3234C212.185 35.4401 212.476 36.5378 213.031 37.5068L216.731 43.9068C217.291 44.8775 217.586 45.9785 217.586 47.0993C217.586 48.2201 217.291 49.3212 216.731 50.2918L216.538 50.6258C216.401 49.9472 216.155 49.2953 215.809 48.6958L211.201 40.7148C210.593 39.6629 210.299 38.4594 210.352 37.2458C205.419 38.5348 202.015 41.2708 202.015 44.4398C202.015 48.8478 208.603 52.4208 216.73 52.4208C224.857 52.4208 231.445 48.8478 231.445 44.4398C231.446 41.2758 228.042 38.5388 223.109 37.2498ZM237.002 50.8768C237.033 49.9248 237.21 48.9831 237.527 48.0848C239.123 48.7816 240.843 49.1483 242.585 49.1628C245.155 49.1628 246.593 48.3338 246.593 46.7028C246.593 45.1028 245.543 44.3538 242.944 43.2198L241.534 42.6118C238.934 41.4788 237.167 40.0118 237.167 37.0838C237.167 33.9328 239.351 31.9148 243.828 31.9148C245.547 31.8927 247.257 32.1633 248.886 32.7148C248.825 33.6566 248.639 34.5862 248.333 35.4788C246.876 34.9643 245.344 34.694 243.8 34.6788C241.4 34.6788 240.29 35.6188 240.29 37.0788C240.29 38.5158 241.368 39.3458 243.303 40.1788L244.796 40.8148C248.306 42.3078 249.771 43.8828 249.771 46.5638C249.771 49.7428 247.371 51.9258 242.671 51.9258C240.727 51.9949 238.792 51.6368 237.002 50.8768ZM264.616 37.6648V51.4848H261.824L261.658 49.8268C261.25 50.4818 260.671 51.0132 259.984 51.3639C259.297 51.7145 258.527 51.8711 257.758 51.8168C254.109 51.8168 251.677 49.1638 251.677 44.5168C251.677 39.6518 254.277 36.8878 259.389 36.8878C261.163 36.8455 262.931 37.1083 264.616 37.6648ZM261.575 48.3338V39.6548C260.853 39.5361 260.122 39.4805 259.391 39.4888C256.24 39.4888 254.775 41.4238 254.775 44.5198C254.775 47.3388 255.908 49.3288 258.617 49.3288C259.686 49.3388 260.728 48.9884 261.575 48.3338ZM280.175 42.1978V51.4848H277.134V42.7228C277.134 40.5388 276.415 39.4888 273.375 39.4888C272.57 39.499 271.768 39.5729 270.975 39.7098V51.4848H267.931V37.6648C269.74 37.2084 271.593 36.9489 273.459 36.8908C278.547 36.8938 280.178 38.8538 280.178 42.1938L280.175 42.1978ZM288.606 49.2188C289.416 49.2217 290.221 49.0815 290.983 48.8048C290.9 49.6338 290.79 50.5738 290.624 51.3748C289.803 51.6842 288.931 51.8342 288.054 51.8168C285.096 51.8168 283.217 50.4628 283.217 47.0908V32.5788C284.203 32.2834 285.228 32.1345 286.258 32.1368V37.3608H291.067C291.023 38.232 290.931 39.1 290.791 39.9608H286.258V46.7328C286.26 48.5278 287.144 49.2188 288.609 49.2188H288.606ZM304.915 37.6648V51.4848H302.131L301.965 49.8268C301.557 50.4818 300.978 51.0132 300.291 51.3639C299.604 51.7145 298.834 51.8711 298.065 51.8168C294.416 51.8168 291.984 49.1638 291.984 44.5168C291.984 39.6518 294.584 36.8878 299.696 36.8878C301.468 36.8461 303.234 37.1089 304.918 37.6648H304.915ZM301.874 48.3338V39.6548C301.152 39.5361 300.421 39.4805 299.69 39.4888C296.539 39.4888 295.074 41.4238 295.074 44.5198C295.074 47.3388 296.207 49.3288 298.916 49.3288C299.986 49.3396 301.03 48.9891 301.877 48.3338H301.874ZM320.474 42.1978V51.4848H317.434V42.7228C317.434 40.5388 316.715 39.4888 313.675 39.4888C312.87 39.499 312.068 39.5729 311.275 39.7098V51.4848H308.231V37.6648C310.04 37.2084 311.893 36.9489 313.759 36.8908C318.849 36.8938 320.48 38.8538 320.48 42.1938L320.474 42.1978ZM335.898 32.1368V51.4858H333.106L332.94 49.7168C332.547 50.4048 331.967 50.9672 331.267 51.3389C330.567 51.7106 329.777 51.8763 328.987 51.8168C325.339 51.8168 322.906 49.1638 322.906 44.5168C322.906 39.6518 325.506 36.8878 330.618 36.8878C331.378 36.8889 332.137 36.9629 332.884 37.1088V32.5478C333.861 32.2444 334.881 32.1055 335.904 32.1368H335.898ZM332.885 48.2788V39.7658C332.085 39.5922 331.271 39.4998 330.453 39.4898C327.44 39.4898 326.003 41.3698 326.003 44.5208C326.003 47.3398 327.136 49.3298 329.845 49.3298C330.95 49.3351 332.024 48.9645 332.891 48.2788H332.885ZM351.185 45.5698H341.485C341.872 48.0298 343.309 49.2188 346.018 49.2188C347.695 49.2172 349.354 48.8593 350.883 48.1688C350.773 48.9688 350.607 50.0208 350.413 50.9328C349.003 51.5536 347.474 51.8555 345.935 51.8168C340.849 51.8168 338.389 48.9978 338.389 44.2708C338.389 40.1518 340.296 36.8908 345.133 36.8908C349.473 36.8908 351.352 39.7378 351.352 43.2208C351.355 44.0067 351.3 44.7918 351.19 45.5698H351.185ZM341.428 43.0268H348.283C348.283 40.7598 347.067 39.4338 344.966 39.4338C342.815 39.4338 341.682 40.6778 341.431 43.0268H341.428ZM361.828 37.0008C361.836 37.8752 361.744 38.7477 361.552 39.6008C360.79 39.519 360.024 39.4819 359.258 39.4898C358.508 39.4902 357.76 39.5457 357.019 39.6558V51.4858H353.978V37.6658C355.665 37.1617 357.416 36.901 359.178 36.8918C360.063 36.881 360.949 36.9177 361.831 37.0018L361.828 37.0008Z" fill="#EC0000"/>
<path d="M173.832 8C173.832 7.44772 173.384 7 172.832 7C172.28 7 171.832 7.44772 171.832 8V46C171.832 46.5523 172.28 47 172.832 47C173.384 47 173.832 46.5523 173.832 46V8Z" fill="#EC0000"/>
<path d="M22.438 14.0521H30.397C30.5546 14.0521 30.7106 14.0831 30.8562 14.1434C31.0018 14.2037 31.1341 14.2921 31.2455 14.4036C31.357 14.515 31.4454 14.6473 31.5057 14.7928C31.566 14.9384 31.597 15.0945 31.597 15.2521V37.941C31.5925 38.1875 31.6838 38.4261 31.8517 38.6067C32.0195 38.7872 32.2509 38.8956 32.497 38.9091C32.6228 38.9104 32.7476 38.8861 32.8636 38.8375C32.9796 38.7888 33.0845 38.7169 33.1717 38.6262C33.2589 38.5355 33.3266 38.428 33.3707 38.3102C33.4148 38.1923 33.4343 38.0667 33.428 37.941V32.7411C33.4281 32.6668 33.443 32.5932 33.4716 32.5246C33.5003 32.456 33.5422 32.3938 33.595 32.3415C33.6478 32.2892 33.7104 32.2478 33.7792 32.2197C33.848 32.1917 33.9217 32.1775 33.996 32.178H34.856C34.9303 32.1775 35.004 32.1917 35.0728 32.2197C35.1417 32.2478 35.2043 32.2892 35.257 32.3415C35.3098 32.3938 35.3517 32.456 35.3804 32.5246C35.4091 32.5932 35.4239 32.6668 35.424 32.7411V37.8411C35.424 40.8591 33.053 42.962 28.47 42.962C24.263 42.962 21.245 41.2381 21.245 36.8141V34.4521C19.734 39.7361 16.282 42.9711 11.808 42.9711C4.80001 42.9711 0 36.8771 0 27.9831C0 19.0891 4.80001 12.9951 11.808 12.9951C16.282 12.9951 19.68 16.23 21.245 21.459V15.2531C21.2448 14.9358 21.3701 14.6314 21.5937 14.4064C21.8172 14.1813 22.1208 14.0539 22.438 14.0521ZM21.186 27.9631C21.186 24.5111 18.92 22.032 15.793 22.032C12.666 22.032 10.4 24.5111 10.4 27.9631C10.4 31.4151 12.612 33.894 15.793 33.894C18.974 33.894 21.193 31.3601 21.193 27.9631H21.186Z" fill="#EC0000"/>
<path d="M100.877 33.3881C101.055 33.4103 101.226 33.4728 101.377 33.5709C101.528 33.669 101.654 33.8001 101.747 33.9543C101.839 34.1085 101.895 34.2817 101.911 34.4608C101.927 34.6399 101.901 34.8202 101.837 34.988C99.963 39.688 94.412 42.952 87.83 42.952C78.648 42.952 72.304 36.8581 72.304 27.8521C72.304 19.0121 78.828 12.972 88.048 12.972C97.268 12.972 103.303 19.0121 103.303 27.9601C103.303 28.4071 103.303 29.0491 103.265 29.6301C103.252 29.9359 103.121 30.2249 102.901 30.437C102.68 30.6491 102.386 30.768 102.08 30.769H82.98C83.68 33.691 85.568 35.4601 88.368 35.4601C89.2511 35.4976 90.1281 35.2964 90.9066 34.8778C91.6851 34.4592 92.3364 33.8385 92.792 33.0811C92.9075 32.8773 93.0813 32.7128 93.291 32.6088C93.5008 32.5047 93.7369 32.4658 93.969 32.4971L100.877 33.3881ZM92.834 25.3201C92.7869 24.0167 92.2408 22.7813 91.3085 21.8693C90.3762 20.9573 89.129 20.4384 87.825 20.42C85.183 20.42 83.459 22.3611 82.925 25.3201H92.834Z" fill="#EC0000"/>
<path d="M40.5519 19.8941L50.2599 23.9381C50.478 24.028 50.6645 24.1804 50.796 24.3762C50.9275 24.5719 50.9981 24.8022 50.9989 25.0381V51.2241C50.9982 51.4219 50.9485 51.6165 50.8544 51.7905C50.7602 51.9645 50.6245 52.1126 50.4593 52.2215C50.2941 52.3304 50.1045 52.3967 49.9075 52.4146C49.7104 52.4325 49.512 52.4014 49.3299 52.3241L39.2589 48.1501C39.0421 48.0589 38.8568 47.9061 38.7261 47.7105C38.5955 47.5149 38.5252 47.2853 38.5239 47.0501V15.3321C38.5239 15.021 38.6475 14.7226 38.8675 14.5026C39.0875 14.2826 39.3858 14.1591 39.6969 14.1591H47.7019C48.013 14.1591 48.3114 14.2826 48.5314 14.5026C48.7514 14.7226 48.8749 15.021 48.8749 15.3321V19.7691C50.5989 15.5951 53.7829 13.0911 58.0569 13.0911C64.9059 13.0911 69.6479 19.1811 69.6479 28.0791C69.6479 36.9771 64.9609 43.0671 58.0569 43.0671C57.0764 43.072 56.1013 42.9197 55.1689 42.6161V21.0711C55.1684 20.9171 55.1376 20.7646 55.0781 20.6225C55.0187 20.4804 54.9318 20.3513 54.8225 20.2428C54.7132 20.1342 54.5836 20.0483 54.4411 19.9899C54.2986 19.9314 54.146 19.9016 53.9919 19.9021L40.5519 19.8941Z" fill="#EC0000"/>
<path d="M87.5161 0.879061L79.531 5.26605C79.3483 5.36608 79.1958 5.5133 79.0894 5.69235C78.983 5.87141 78.9266 6.07577 78.926 6.28406V10.4951C78.9264 10.697 78.9795 10.8954 79.0798 11.0707C79.1801 11.246 79.3242 11.3922 79.4982 11.4949C79.6721 11.5976 79.8698 11.6533 80.0717 11.6565C80.2737 11.6596 80.473 11.6102 80.65 11.5131L87.5161 7.72705C87.6879 7.63471 87.8799 7.58637 88.075 7.58637C88.2701 7.58637 88.4622 7.63471 88.634 7.72705L95.5001 11.5041C95.6768 11.6015 95.8759 11.6511 96.0778 11.648C96.2796 11.645 96.4772 11.5893 96.6509 11.4865C96.8246 11.3836 96.9685 11.2373 97.0683 11.0618C97.1681 10.8864 97.2204 10.6879 97.22 10.4861V6.28604C97.2204 6.07817 97.1649 5.874 97.0594 5.69492C96.9538 5.51583 96.8021 5.36842 96.6201 5.26807L88.636 0.881044C88.4648 0.785833 88.2722 0.735703 88.0763 0.735353C87.8804 0.735004 87.6876 0.784461 87.5161 0.879061Z" fill="#EC0000"/>
<path d="M105.772 15.5291V8.27606C105.773 8.09368 105.816 7.9139 105.897 7.75095C105.979 7.58799 106.098 7.44631 106.244 7.33707L113.494 1.91104C113.697 1.76076 113.942 1.67883 114.194 1.67706H121.874C122.185 1.67706 122.484 1.80065 122.704 2.02063C122.924 2.24061 123.047 2.53897 123.047 2.85007V29.562C123.048 29.7164 123.018 29.8694 122.959 30.0122C122.9 30.155 122.814 30.2847 122.705 30.3941C122.596 30.5034 122.467 30.5902 122.324 30.6494C122.181 30.7086 122.028 30.739 121.874 30.739H113.885C113.573 30.739 113.274 30.615 113.053 30.3943C112.832 30.1736 112.708 29.8742 112.708 29.562V12.7701L107.637 16.4931C107.461 16.622 107.253 16.6993 107.035 16.7162C106.817 16.7331 106.599 16.6891 106.406 16.5889C106.212 16.4887 106.05 16.3365 105.938 16.1493C105.825 15.962 105.768 15.7472 105.771 15.5291H105.772Z" fill="#EC0000"/>
<path d="M125.973 15.5291V8.27606C125.974 8.09376 126.016 7.91405 126.098 7.7511C126.18 7.58815 126.298 7.44642 126.444 7.33707L133.694 1.91104C133.896 1.76026 134.142 1.67828 134.394 1.67706H142.082C142.393 1.67706 142.692 1.80065 142.912 2.02063C143.132 2.24061 143.255 2.53897 143.255 2.85007V29.562C143.256 29.7164 143.226 29.8694 143.167 30.0122C143.108 30.155 143.022 30.2847 142.913 30.3941C142.804 30.5034 142.675 30.5902 142.532 30.6494C142.389 30.7086 142.236 30.739 142.082 30.739H134.082C133.927 30.7401 133.772 30.7103 133.628 30.6514C133.484 30.5925 133.353 30.5056 133.243 30.3958C133.133 30.286 133.046 30.1554 132.986 30.0116C132.927 29.8678 132.897 29.7137 132.897 29.5581V12.7701L127.834 16.4931C127.658 16.622 127.45 16.6993 127.232 16.7162C127.014 16.7331 126.796 16.6891 126.603 16.5889C126.409 16.4887 126.247 16.3365 126.135 16.1493C126.022 15.962 125.965 15.7472 125.968 15.5291H125.973Z" fill="#EC0000"/>
</svg>
