<svg width="55" height="43" viewBox="0 0 55 43" fill="none" xmlns="http://www.w3.org/2000/svg">
<path d="M40.1931 42.1931C38.9294 42.1913 37.7179 41.6884 36.8243 40.7949C35.9308 39.9013 35.4279 38.6898 35.4261 37.4261V35.8381H19.3261V37.4261C19.3245 38.6901 18.8216 39.9018 17.9277 40.7955C17.0339 41.6892 15.822 42.1918 14.5581 42.1931H11.3801C10.1164 42.1913 8.90492 41.6884 8.01134 40.7949C7.11775 39.9013 6.61492 38.6898 6.61307 37.4261V35.8381H5.02507C3.76135 35.8363 2.54992 35.3334 1.65634 34.4398C0.762754 33.5463 0.259923 32.3348 0.258071 31.0711V21.5371C0.25409 19.4794 1.056 17.5019 2.49207 16.0281C1.93132 15.6763 1.45007 15.2115 1.07905 14.6633C0.70803 14.115 0.455382 13.4955 0.337235 12.8442C0.219088 12.1928 0.238037 11.524 0.392873 10.8804C0.54771 10.2368 0.835031 9.63253 1.2365 9.1062C1.63796 8.57987 2.14476 8.14302 2.72453 7.82354C3.3043 7.50406 3.94431 7.30897 4.60371 7.25071C5.26311 7.19246 5.92741 7.27232 6.55421 7.48521C7.18101 7.69809 7.75655 8.03932 8.24407 8.48712L9.24407 4.49212C9.50194 3.46049 10.0973 2.54471 10.9356 1.8904C11.7738 1.23609 12.8067 0.880829 13.8701 0.881117H40.8931C41.9573 0.878585 42.9917 1.23295 43.8309 1.88756C44.6701 2.54217 45.2655 3.45922 45.5221 4.49212L46.5221 8.48712C47.0098 8.04118 47.5851 7.70168 48.2113 7.49023C48.8374 7.27878 49.5008 7.20001 50.159 7.25893C50.8173 7.31786 51.4561 7.51319 52.0347 7.83249C52.6134 8.15179 53.1192 8.58806 53.52 9.11355C53.9208 9.63903 54.2079 10.2422 54.3628 10.8847C54.5178 11.5271 54.5373 12.1948 54.4201 12.8453C54.3029 13.4957 54.0515 14.1146 53.6821 14.6626C53.3126 15.2105 52.8331 15.6756 52.2741 16.0281C53.7033 17.5056 54.5013 19.4814 54.4991 21.5371V31.0711C54.497 32.3348 53.994 33.546 53.1005 34.4396C52.207 35.3331 50.9957 35.836 49.7321 35.8381H48.1421V37.4261C48.1405 38.6896 47.638 39.9009 46.7448 40.7944C45.8516 41.688 44.6405 42.191 43.3771 42.1931H40.1931ZM38.6051 37.4261C38.6045 37.6349 38.6452 37.8417 38.7248 38.0347C38.8044 38.2278 38.9214 38.4032 39.0689 38.5509C39.2164 38.6986 39.3917 38.8157 39.5846 38.8956C39.7775 38.9754 39.9843 39.0164 40.1931 39.0161H43.3721C43.5809 39.0164 43.7876 38.9754 43.9805 38.8956C44.1735 38.8157 44.3487 38.6986 44.4963 38.5509C44.6438 38.4032 44.7607 38.2278 44.8403 38.0347C44.9199 37.8417 44.9606 37.6349 44.9601 37.4261V35.8381H38.6051V37.4261ZM9.79207 37.4261C9.79154 37.6349 9.83224 37.8417 9.91184 38.0347C9.99143 38.2278 10.1084 38.4032 10.2559 38.5509C10.4034 38.6986 10.5787 38.8157 10.7716 38.8956C10.9645 38.9754 11.1713 39.0164 11.3801 39.0161H14.5581C14.767 39.0165 14.9739 38.9757 15.167 38.8959C15.3601 38.8161 15.5355 38.699 15.6833 38.5513C15.831 38.4036 15.9481 38.2281 16.0278 38.0351C16.1076 37.842 16.1485 37.635 16.1481 37.4261V35.8381H9.79207V37.4261ZM3.43507 21.5371V31.0711C3.43481 31.2798 3.47574 31.4865 3.55551 31.6794C3.63528 31.8722 3.75233 32.0474 3.89995 32.1949C4.04757 32.3425 4.22285 32.4594 4.41575 32.5391C4.60865 32.6187 4.81537 32.6595 5.02407 32.6591H49.7241C49.9328 32.6595 50.1395 32.6187 50.3324 32.5391C50.5253 32.4594 50.7006 32.3425 50.8482 32.1949C50.9958 32.0474 51.1129 31.8722 51.1926 31.6794C51.2724 31.4865 51.3133 31.2798 51.3131 31.0711V21.5371C51.311 20.2735 50.808 19.0622 49.9145 18.1687C49.021 17.2751 47.8097 16.7722 46.5461 16.7701H8.20207C6.93843 16.7722 5.72716 17.2751 4.83363 18.1687C3.9401 19.0622 3.43719 20.2735 3.43507 21.5371ZM48.1351 12.0031C48.1353 12.3173 48.2286 12.6244 48.4033 12.8855C48.578 13.1467 48.8261 13.3502 49.1165 13.4704C49.4068 13.5905 49.7262 13.6219 50.0343 13.5605C50.3425 13.4992 50.6255 13.3479 50.8477 13.1257C51.0698 12.9035 51.2211 12.6205 51.2825 12.3124C51.3438 12.0042 51.3125 11.6848 51.1923 11.3945C51.0722 11.1042 50.8687 10.856 50.6075 10.6813C50.3463 10.5066 50.0393 10.4133 49.7251 10.4131C49.5164 10.4131 49.3097 10.4543 49.1169 10.5342C48.9241 10.6141 48.749 10.7313 48.6015 10.8789C48.454 11.0266 48.3371 11.2019 48.2574 11.3948C48.1777 11.5877 48.1368 11.7944 48.1371 12.0031H48.1351ZM41.6411 13.5921H44.5341L42.4501 5.26612C42.363 4.92171 42.1639 4.61606 41.884 4.39734C41.604 4.17863 41.2593 4.05928 40.9041 4.05812H13.8701C13.5148 4.05928 13.1701 4.17863 12.8902 4.39734C12.6103 4.61606 12.4111 4.92171 12.3241 5.26612L10.2371 13.5931H25.9671C26.3606 11.7927 27.3576 10.1808 28.7928 9.02459C30.2279 7.86841 32.0151 7.23739 33.8581 7.23612C35.689 7.23863 37.4631 7.87226 38.8814 9.03023C40.2996 10.1882 41.2754 11.7997 41.6441 13.5931L41.6411 13.5921ZM29.2481 13.5921H38.3271C37.9995 12.6631 37.3918 11.8584 36.5879 11.2891C35.7839 10.7198 34.8232 10.4137 33.8381 10.4131C32.8423 10.4202 31.8719 10.7275 31.0535 11.2948C30.2352 11.8621 29.607 12.6631 29.2511 13.5931L29.2481 13.5921ZM3.43507 12.0031C3.43527 12.3173 3.52863 12.6245 3.70335 12.8856C3.87807 13.1468 4.12631 13.3503 4.41668 13.4704C4.70705 13.5906 5.02651 13.6219 5.33468 13.5605C5.64285 13.499 5.92589 13.3476 6.14802 13.1254C6.37014 12.9031 6.52138 12.62 6.58261 12.3117C6.64384 12.0035 6.61232 11.6841 6.49202 11.3938C6.37172 11.1035 6.16806 10.8554 5.90677 10.6808C5.64548 10.5063 5.3383 10.4131 5.02407 10.4131C4.81524 10.4129 4.60842 10.4538 4.41544 10.5336C4.22247 10.6135 4.04715 10.7306 3.89954 10.8783C3.75192 11.026 3.63491 11.2014 3.5552 11.3944C3.4755 11.5874 3.43468 11.7943 3.43507 12.0031ZM38.6051 24.7141C38.6051 23.7713 38.8847 22.8496 39.4085 22.0657C39.9323 21.2818 40.6768 20.6708 41.5478 20.31C42.4189 19.9492 43.3774 19.8548 44.3021 20.0387C45.2268 20.2226 46.0762 20.6767 46.7429 21.3433C47.4095 22.01 47.8635 22.8594 48.0475 23.7841C48.2314 24.7088 48.137 25.6673 47.7762 26.5384C47.4154 27.4094 46.8044 28.1539 46.0205 28.6777C45.2365 29.2015 44.3149 29.4811 43.3721 29.4811C42.1084 29.4793 40.8969 28.9764 40.0033 28.0828C39.1098 27.1893 38.6069 25.9778 38.6051 24.7141ZM41.7821 24.7141C41.7819 25.0284 41.8749 25.3357 42.0493 25.5971C42.2238 25.8585 42.4718 26.0623 42.7621 26.1828C43.0523 26.3032 43.3718 26.3349 43.6801 26.2738C43.9884 26.2127 44.2716 26.0615 44.494 25.8394C44.7163 25.6173 44.8678 25.3343 44.9293 25.0261C44.9908 24.7179 44.9596 24.3984 44.8395 24.108C44.7194 23.8175 44.5159 23.5692 44.2547 23.3945C43.9935 23.2197 43.6863 23.1263 43.3721 23.1261C43.1633 23.1257 42.9566 23.1665 42.7636 23.2462C42.5706 23.3258 42.3953 23.4427 42.2476 23.5902C42.0999 23.7377 41.9828 23.9129 41.9029 24.1058C41.823 24.2987 41.7819 24.5054 41.7821 24.7141ZM32.2481 27.8931V24.7141C32.2585 24.2997 32.4304 23.9058 32.7272 23.6164C33.0239 23.327 33.422 23.165 33.8366 23.165C34.2511 23.165 34.6492 23.327 34.946 23.6164C35.2428 23.9058 35.4147 24.2997 35.4251 24.7141V27.8931C35.4147 28.3075 35.2428 28.7014 34.946 28.9909C34.6492 29.2803 34.2511 29.4423 33.8366 29.4423C33.422 29.4423 33.0239 29.2803 32.7272 28.9909C32.4304 28.7014 32.2585 28.3075 32.2481 27.8931ZM25.7871 27.8931V24.7141C25.7975 24.2997 25.9694 23.9058 26.2662 23.6164C26.5629 23.327 26.961 23.165 27.3756 23.165C27.7901 23.165 28.1882 23.327 28.485 23.6164C28.7818 23.9058 28.9537 24.2997 28.9641 24.7141V27.8931C28.9537 28.3075 28.7818 28.7014 28.485 28.9909C28.1882 29.2803 27.7901 29.4423 27.3756 29.4423C26.961 29.4423 26.5629 29.2803 26.2662 28.9909C25.9694 28.7014 25.7975 28.3075 25.7871 27.8931ZM19.3241 27.8931V24.7141C19.3345 24.2995 19.5065 23.9053 19.8035 23.6157C20.1004 23.3261 20.4988 23.164 20.9136 23.164C21.3284 23.164 21.7267 23.3261 22.0237 23.6157C22.3206 23.9053 22.4927 24.2995 22.5031 24.7141V27.8931C22.4927 28.3078 22.3206 28.702 22.0237 28.9916C21.7267 29.2812 21.3284 29.4432 20.9136 29.4432C20.4988 29.4432 20.1004 29.2812 19.8035 28.9916C19.5065 28.702 19.3345 28.3078 19.3241 27.8931ZM6.61307 24.7141C6.61307 23.7713 6.89265 22.8496 7.41646 22.0657C7.94026 21.2818 8.68476 20.6708 9.55582 20.31C10.4269 19.9492 11.3854 19.8548 12.3101 20.0387C13.2348 20.2226 14.0842 20.6767 14.7508 21.3433C15.4175 22.01 15.8715 22.8594 16.0555 23.7841C16.2394 24.7088 16.145 25.6673 15.7842 26.5384C15.4234 27.4094 14.8124 28.1539 14.0285 28.6777C13.2445 29.2015 12.3229 29.4811 11.3801 29.4811C10.1164 29.479 8.90516 28.9761 8.01163 28.0826C7.1181 27.189 6.61519 25.9778 6.61307 24.7141ZM9.79207 24.7141C9.79187 25.0285 9.88492 25.3358 10.0594 25.5973C10.234 25.8588 10.4821 26.0626 10.7725 26.183C11.0629 26.3034 11.3825 26.3349 11.6908 26.2736C11.9992 26.2124 12.2824 26.061 12.5047 25.8387C12.7269 25.6164 12.8783 25.3332 12.9396 25.0249C13.0009 24.7165 12.9693 24.397 12.8489 24.1066C12.7285 23.8162 12.5247 23.568 12.2632 23.3935C12.0018 23.219 11.6944 23.1259 11.3801 23.1261C11.1715 23.1259 10.9648 23.1667 10.7721 23.2465C10.5793 23.3262 10.4041 23.4431 10.2566 23.5906C10.1091 23.7382 9.99213 23.9133 9.91241 24.1061C9.8327 24.2989 9.79181 24.5055 9.79207 24.7141Z" fill="#222222"/>
</svg>
