<svg width="43" height="42" viewBox="0 0 43 42" fill="none" xmlns="http://www.w3.org/2000/svg">
<path d="M1.32692 41.58V38.145H5.62092V28.545L3.40092 30.77L0.971924 28.341L14.2109 15.1L27.4479 28.341L25.0199 30.77L22.7989 28.55V38.15H27.0929V41.58H1.32692ZM15.9269 32.992V38.145H19.3629V25.114L14.2109 19.96L9.05692 25.114V38.145H12.4919V32.992H15.9269ZM28.4539 34.206L30.8829 31.777L33.9629 34.857V11.372L30.8829 14.452L28.4539 12.023L31.5339 8.943H8.04992L11.1299 12.023L8.70192 14.452L1.47192 7.226L8.70192 0L11.1309 2.429L8.04992 5.508H31.5349L28.4549 2.429L30.8839 0L42.9089 12.024L40.4789 14.453L37.3999 11.373V34.857L40.4789 31.777L42.9089 34.206L35.6819 41.432L28.4539 34.206Z" fill="#222222"/>
</svg>
