<svg width="11" height="15" viewBox="0 0 11 15" fill="none" xmlns="http://www.w3.org/2000/svg">
<path d="M5.0011 3.73389e-08C4.1354 -0.000105746 3.28451 0.224558 2.5317 0.652001C1.77889 1.07945 1.14996 1.69502 0.706461 2.43849C0.262962 3.18195 0.0200958 4.02783 0.00162656 4.89333C-0.0168426 5.75883 0.18972 6.61429 0.601099 7.376L4.7271 14.839C4.75422 14.8877 4.79388 14.9283 4.84197 14.9566C4.89005 14.9849 4.94482 14.9998 5.0006 14.9998C5.05638 14.9998 5.11115 14.9849 5.15923 14.9566C5.20732 14.9283 5.24698 14.8877 5.2741 14.839L9.4021 7.374C9.81304 6.61228 10.0192 5.75694 10.0005 4.89164C9.9817 4.02635 9.73866 3.18074 9.2951 2.43755C8.85154 1.69435 8.22265 1.07902 7.46997 0.65175C6.71729 0.224481 5.8666 -9.19483e-05 5.0011 3.73389e-08ZM5.0011 7.5C4.50665 7.5 4.0233 7.35338 3.61218 7.07867C3.20105 6.80397 2.88062 6.41352 2.6914 5.95671C2.50218 5.49989 2.45267 4.99723 2.54913 4.51227C2.6456 4.02732 2.8837 3.58186 3.23333 3.23223C3.58296 2.8826 4.02842 2.6445 4.51338 2.54804C4.99833 2.45157 5.501 2.50108 5.95781 2.6903C6.41463 2.87952 6.80507 3.19995 7.07977 3.61107C7.35448 4.0222 7.5011 4.50555 7.5011 5C7.5011 5.66304 7.23771 6.29893 6.76887 6.76777C6.30003 7.23661 5.66414 7.5 5.0011 7.5Z" fill="#222222"/>
</svg>
