<svg width="61" height="42" viewBox="0 0 61 42" fill="none" xmlns="http://www.w3.org/2000/svg">
<path d="M35.2129 23.7681H33.9509V17.6611C33.9491 15.7648 33.1958 13.9465 31.856 12.6045C30.5163 11.2625 28.6992 10.5061 26.8029 10.5011C26.1953 10.4985 25.5899 10.5769 25.0029 10.7341C24.3841 9.61766 23.4778 8.68722 22.3779 8.03935C21.2781 7.39148 20.0249 7.0498 18.7484 7.0498C17.472 7.0498 16.2188 7.39148 15.1189 8.03935C14.0191 8.68722 13.1128 9.61766 12.4939 10.7341C11.9069 10.5769 11.3016 10.4985 10.6939 10.5011C9.75525 10.5027 8.82606 10.6891 7.95943 11.0498C7.0928 11.4105 6.30569 11.9383 5.64305 12.6032C4.98041 13.268 4.45522 14.0569 4.09745 14.9248C3.73969 15.7926 3.55636 16.7224 3.55794 17.6611V23.7681H2.15794C1.7211 23.7702 1.30285 23.9452 0.994613 24.2547C0.686372 24.5643 0.513199 24.9833 0.512939 25.4201L0.512939 34.4041C0.513204 34.8422 0.687339 35.2622 0.997092 35.5719C1.30684 35.8817 1.72688 36.0558 2.16494 36.0561H2.32394V40.1071C2.31293 40.3306 2.34745 40.554 2.4254 40.7638C2.50335 40.9736 2.62311 41.1653 2.77741 41.3274C2.93171 41.4895 3.11733 41.6185 3.32302 41.7067C3.5287 41.7949 3.75015 41.8404 3.97394 41.8404C4.19773 41.8404 4.41918 41.7949 4.62486 41.7067C4.83054 41.6185 5.01617 41.4895 5.17047 41.3274C5.32477 41.1653 5.44453 40.9736 5.52248 40.7638C5.60043 40.554 5.63495 40.3306 5.62394 40.1071V36.0561H31.8129V40.1071C31.8019 40.3306 31.8365 40.554 31.9144 40.7638C31.9924 40.9736 32.1121 41.1653 32.2664 41.3274C32.4207 41.4895 32.6063 41.6185 32.812 41.7067C33.0177 41.7949 33.2392 41.8404 33.4629 41.8404C33.6867 41.8404 33.9082 41.7949 34.1139 41.7067C34.3195 41.6185 34.5052 41.4895 34.6595 41.3274C34.8138 41.1653 34.9335 40.9736 35.0115 40.7638C35.0894 40.554 35.1239 40.3306 35.1129 40.1071V36.0561H35.2349C35.673 36.0558 36.093 35.8817 36.4028 35.5719C36.7125 35.2622 36.8867 34.8422 36.8869 34.4041V25.4041C36.8755 24.9672 36.6943 24.552 36.3817 24.2466C36.0692 23.9412 35.6499 23.7695 35.2129 23.7681ZM3.80494 32.7491V27.0581H33.5719V32.7581H3.80494V32.7491ZM23.9389 23.7651H13.5479V21.9171C13.5479 21.6601 13.5599 21.1091 14.4409 21.1091H23.0409C23.8239 21.1091 23.9339 21.6481 23.9339 21.9171V23.7651H23.9389ZM27.2389 23.7651V21.5491C27.1555 20.4856 26.6567 19.4977 25.8505 18.7991C25.0443 18.1005 23.9955 17.7474 22.9309 17.8161H14.5709C13.5072 17.7488 12.4597 18.1025 11.6546 18.801C10.8495 19.4994 10.3514 20.4865 10.2679 21.5491V23.7641H6.84094V17.6571C6.8396 16.6352 7.24327 15.6543 7.96354 14.9294C8.68382 14.2044 9.66201 13.7944 10.6839 13.7891C11.35 13.7875 12.005 13.9598 12.5839 14.2891C12.8052 14.4154 13.0526 14.4889 13.3069 14.5039C13.5613 14.5189 13.8156 14.4749 14.0501 14.3754C14.2847 14.2759 14.493 14.1236 14.659 13.9303C14.825 13.737 14.944 13.508 15.0069 13.2611C15.2152 12.4253 15.697 11.6831 16.3757 11.1528C17.0545 10.6224 17.8911 10.3343 18.7524 10.3343C19.6138 10.3343 20.4504 10.6224 21.1292 11.1528C21.8079 11.6831 22.2897 12.4253 22.4979 13.2611C22.5582 13.5089 22.676 13.7389 22.842 13.9325C23.0079 14.1261 23.2173 14.2777 23.4529 14.3751C23.6875 14.4765 23.9426 14.5215 24.1977 14.5066C24.4528 14.4917 24.7008 14.4172 24.9219 14.2891C25.5009 13.9598 26.1559 13.7875 26.8219 13.7891C27.8458 13.7918 28.8268 14.2005 29.5495 14.9257C30.2723 15.6509 30.6777 16.6333 30.6769 17.6571V23.7641L27.2389 23.7651Z" fill="#222222"/>
<path d="M53.3269 23.218C54.4425 23.218 55.3469 22.3136 55.3469 21.198C55.3469 20.0824 54.4425 19.178 53.3269 19.178C52.2113 19.178 51.3069 20.0824 51.3069 21.198C51.3069 22.3136 52.2113 23.218 53.3269 23.218Z" fill="#222222"/>
<path d="M60.3638 41.638H39.9238V0.758057H60.3638V41.638ZM43.1058 38.4581H57.1808V3.94005H43.1058V38.4581Z" fill="#222222"/>
</svg>
